<svg xmlns="http://www.w3.org/2000/svg" viewBox="0 0 240 240" data-title="House" data-emoji="🏠">
  <path id="grass" d="M0 198 C 60 188 180 188 240 198 L 240 240 L 0 240 Z"/>
  <circle id="sun" cx="206" cy="40" r="22"/>
  <path id="cloud" d="M26 62 q -16 0 -16 -16 q 0 -16 16 -15 q 5 -15 22 -12 q 13 -9 26 4 q 17 -2 17 15 q 0 16 -17 16 Z"/>
  <path id="chimney" d="M150 74 L 150 40 L 178 40 L 178 92 Z"/>
  <path id="roof" d="M36 106 L 120 38 L 204 106 Z"/>
  <rect id="wall" x="58" y="106" width="124" height="94"/>
  <rect id="door" x="104" y="142" width="32" height="58" rx="4"/>
  <rect id="window-left" x="72" y="122" width="26" height="26" rx="3"/>
  <rect id="window-right" x="142" y="122" width="26" height="26" rx="3"/>
</svg>
